<?xml version="1.0" encoding="utf-8"?>
<!-- Generator: Adobe Illustrator 24.1.1, SVG Export Plug-In . SVG Version: 6.00 Build 0)  -->
<svg version="1.1" id="Capa_1" xmlns="http://www.w3.org/2000/svg" xmlns:xlink="http://www.w3.org/1999/xlink" x="0px" y="0px"
	 viewBox="0 0 50 50" style="enable-background:new 0 0 50 50;" xml:space="preserve">
<style type="text/css">
	.st0{fill:#6A4CFC;}
	.st1{fill:#FFFFFF;}
</style>
<g id="Grupo_1" transform="translate(-39 -19)">
	<circle id="Elipse_1" class="st0" cx="64" cy="44" r="25"/>
	<g id="instagram" transform="translate(69.551 50)">
		<path id="Trazado_2216" class="st1" d="M5-10.4c0-0.9-0.2-1.8-0.5-2.6c-0.6-1.4-1.7-2.6-3.1-3.1c-0.8-0.3-1.7-0.5-2.6-0.5
			c-1.1-0.1-1.5-0.1-4.4-0.1s-3.3,0-4.4,0.1c-0.9,0-1.8,0.2-2.6,0.5c-0.7,0.3-1.4,0.7-1.9,1.2c-0.5,0.5-1,1.2-1.2,1.9
			c-0.3,0.8-0.5,1.7-0.5,2.6c-0.1,1.1-0.1,1.5-0.1,4.4s0,3.3,0.1,4.4c0,0.9,0.2,1.8,0.5,2.6c0.6,1.4,1.7,2.6,3.1,3.1
			c0.8,0.3,1.7,0.5,2.6,0.5c1.1,0.1,1.5,0.1,4.4,0.1s3.3,0,4.4-0.1c0.9,0,1.8-0.2,2.6-0.5C2.8,3.5,4,2.4,4.5,1C4.8,0.1,5-0.7,5-1.6
			C5.1-2.7,5.1-3.1,5.1-6S5.1-9.3,5-10.4L5-10.4z M3.1-1.7c0,0.7-0.1,1.3-0.4,2c-0.4,0.9-1.1,1.7-2,2c-0.6,0.2-1.3,0.4-2,0.4
			c-1.1,0.1-1.5,0.1-4.3,0.1s-3.2,0-4.3-0.1c-0.7,0-1.3-0.1-2-0.4c-0.5-0.2-0.9-0.4-1.2-0.8c-0.4-0.3-0.6-0.8-0.8-1.2
			c-0.2-0.6-0.4-1.3-0.4-2c-0.1-1.1-0.1-1.5-0.1-4.3s0-3.2,0.1-4.3c0-0.7,0.1-1.3,0.4-2c0.2-0.5,0.4-0.9,0.8-1.2
			c0.3-0.4,0.8-0.6,1.2-0.8c0.6-0.2,1.3-0.4,2-0.4c1.1,0,1.5-0.1,4.3-0.1s3.2,0,4.3,0.1c0.7,0,1.3,0.1,2,0.4
			c0.5,0.2,0.9,0.4,1.2,0.8c0.4,0.3,0.6,0.8,0.8,1.2c0.2,0.6,0.4,1.3,0.4,2C3.2-9.2,3.2-8.8,3.2-6S3.2-2.8,3.1-1.7L3.1-1.7z"/>
		<path id="Trazado_2217" class="st1" d="M-5.5-11.5C-8.6-11.5-11-9-11-6s2.4,5.5,5.5,5.5S-0.1-3-0.1-6C-0.1-9-2.5-11.5-5.5-11.5z
			 M-5.5-2.4c-2,0-3.5-1.6-3.5-3.5s1.6-3.5,3.5-3.5S-2-8-2-6v0C-2-4-3.6-2.4-5.5-2.4z"/>
		<path id="Trazado_2218" class="st1" d="M1.4-11.7c0,0.7-0.6,1.3-1.3,1.3c-0.7,0-1.3-0.6-1.3-1.3c0-0.7,0.6-1.3,1.3-1.3
			S1.4-12.4,1.4-11.7C1.4-11.7,1.4-11.7,1.4-11.7z"/>
	</g>
</g>
</svg>
